<svg xmlns="http://www.w3.org/2000/svg" xmlns:xlink="http://www.w3.org/1999/xlink" width="667" height="315" version="1.1" viewBox="0 0 667 315"><title>2-Migration</title><desc>Created with Sketch.</desc><defs><rect id="path-1" width="444" height="141.045" x="161" y="27"/><rect id="path-2" width="196" height="80.388" x="185" y="64.612"/><rect id="path-3" width="146" height="141.045" x="0" y="26"/><rect id="path-4" width="27" height="27.201" x="331" y="98" rx="13.5"/><path id="path-5" d="M222,99 L246.627027,99 L246.627027,124.166007 L222,124.166007 L222,99 Z"/><mask id="mask-6" width="24.627" height="25.166" x="0" y="0" fill="#fff" maskContentUnits="userSpaceOnUse" maskUnits="objectBoundingBox"><use xlink:href="#path-5"/></mask><rect id="path-7" width="196" height="80.388" x="391" y="64.612"/><path id="path-8" d="M428,99 L452.627027,99 L452.627027,124.166007 L428,124.166007 L428,99 Z"/><mask id="mask-9" width="24.627" height="25.166" x="0" y="0" fill="#fff" maskContentUnits="userSpaceOnUse" maskUnits="objectBoundingBox"><use xlink:href="#path-8"/></mask><rect id="path-10" width="24.727" height="24.834" x="9" y="0"/><ellipse id="path-11" cx="9.5" cy="25.802" rx="9.5" ry="9.571"/><rect id="path-12" width="27" height="27.201" x="537" y="98" rx="13.5"/></defs><g id="2-Migration" fill="none" fill-rule="evenodd" stroke="none" stroke-width="1"><rect id="Rectangle-5" width="667" height="315" x="0" y="0" fill="#F9FAFB"/><g id="Group-3" transform="translate(31.000000, 73.000000)"><g id="Group-4"><g id="Rectangle-6"><use fill="#EDF0F3" fill-rule="evenodd" xlink:href="#path-1"/><rect width="442.4" height="139.445" x="161.8" y="27.8" stroke="#DFE3E6" stroke-width="1.6"/></g><text id="Cloud-Foundry-(CF)-O" fill="#3D70B2" font-family="IBMPlexSans, IBM Plex Sans" font-size="16" font-weight="normal"><tspan x="161" y="14">Cloud Foundry (CF) Organization</tspan></text><g id="Rectangle-6"><use fill="#FFF" fill-rule="evenodd" xlink:href="#path-2"/><rect width="194.4" height="78.788" x="185.8" y="65.412" stroke="#3D70B2" stroke-width="1.6"/></g><text id="Space-1" fill="#3D70B2" font-family="IBMPlexSans, IBM Plex Sans" font-size="14" font-weight="normal"><tspan x="185" y="51">Space 1</tspan></text><text id="App-1" fill="#3D70B2" font-family="IBMPlexSans, IBM Plex Sans" font-size="12" font-weight="normal"><tspan x="328.428" y="88">App 1</tspan></text><g id="Rectangle-6"><use fill="#EDF0F3" fill-rule="evenodd" xlink:href="#path-3"/><rect width="144.4" height="139.445" x=".8" y="26.8" stroke="#DFE3E6" stroke-width="1.6"/></g><text id="Resource-Group" fill="#3D70B2" font-family="IBMPlexSans, IBM Plex Sans" font-size="16" font-weight="normal"><tspan x="1" y="14">Resource Group</tspan></text><path id="Line-2" stroke="#3D70B2" stroke-linecap="square" stroke-width="1.6" d="M231.471785,111.014925 L344.5,111.014925"/><g id="Rectangle-3"><use fill="#FFF" fill-rule="evenodd" xlink:href="#path-4"/><rect width="25.4" height="25.601" x="331.8" y="98.8" stroke="#3D70B2" stroke-width="1.6" rx="12.7"/></g><path id="Line" stroke="#3D70B2" stroke-linecap="square" stroke-linejoin="bevel" stroke-width="1.5" d="M89.5,109.75 L209.5,109.75"/><text id="Service-Alias" fill="#3D70B2" font-family="IBMPlexSans, IBM Plex Sans" font-size="12" font-weight="normal" line-spacing="14"><tspan x="200" y="87">Service Alias</tspan></text><text id="bind" fill="#3D70B2" font-family="IBMPlexSans-Italic, IBM Plex Sans" font-size="9" font-style="italic" font-weight="normal" line-spacing="14"><tspan x="279.572" y="125">bind</tspan></text><use id="Rectangle-3-Copy-2" fill="#FFF" stroke="#3D70B2" stroke-dasharray="1.5 5.5" stroke-linecap="square" stroke-width="3.2" mask="url(#mask-6)" xlink:href="#path-5"/><g id="Rectangle-6"><use fill="#FFF" fill-rule="evenodd" xlink:href="#path-7"/><rect width="194.4" height="78.788" x="391.8" y="65.412" stroke="#3D70B2" stroke-width="1.6"/></g><text id="App-2" fill="#3D70B2" font-family="IBMPlexSans, IBM Plex Sans" font-size="12" font-weight="normal"><tspan x="534.428" y="88">App 2</tspan></text><path id="Line-2" stroke="#3D70B2" stroke-linecap="square" stroke-width="1.6" d="M437.471785,111.014925 L546.269231,111.014925"/><text id="Service-Alias" fill="#3D70B2" font-family="IBMPlexSans, IBM Plex Sans" font-size="12" font-weight="normal" line-spacing="14"><tspan x="406" y="87">Service Alias</tspan></text><use id="Rectangle-3-Copy-2" fill="#FFF" stroke="#3D70B2" stroke-dasharray="1.5 5.5" stroke-linecap="square" stroke-width="3.2" mask="url(#mask-9)" xlink:href="#path-8"/><text id="Space-2" fill="#3D70B2" font-family="IBMPlexSans, IBM Plex Sans" font-size="14" font-weight="normal"><tspan x="392" y="51">Space 2</tspan></text><g id="Group-13" transform="translate(34.000000, 74.768657)"><g id="Group-7" transform="translate(18.000000, 22.000000)"><g id="Rectangle-3"><use fill="#FFF" fill-rule="evenodd" xlink:href="#path-10"/><rect width="23.127" height="23.234" x="9.8" y=".8" stroke="#DFE3E6" stroke-width="1.6"/></g><g id="Oval-4"><use fill="#3D70B2" fill-rule="evenodd" xlink:href="#path-11"/><ellipse cx="9.5" cy="25.802" stroke="#3D70B2" stroke-width="1.6" rx="8.7" ry="8.771"/></g><path id="$" fill="#FFF" d="M9.65707692,29.8468312 L8.91169231,29.8468312 L8.91169231,29.0870494 C8.026,29.016372 7.43846154,28.6188117 7,28.0887313 L7.64015385,27.5056429 C7.99969231,27.9473766 8.42061538,28.2300861 8.97307692,28.3007635 L8.97307692,26.3217968 C7.71907692,26.0479219 7.18415385,25.5178416 7.18415385,24.6255396 C7.18415385,23.6890643 7.85061538,23.1148106 8.91169231,22.9999598 L8.91169231,22.2313433 L9.65707692,22.2313433 L9.65707692,22.9999598 C10.4024615,23.0706372 10.9549231,23.3886854 11.3583077,23.9099311 L10.7093846,24.4488462 C10.4550769,24.1131286 10.1043077,23.8657577 9.60446154,23.7862457 L9.60446154,25.5973536 C10.876,25.8800631 11.4284615,26.3748048 11.4284615,27.2936108 C11.4284615,28.2389208 10.7883077,28.9280253 9.65707692,29.06938 L9.65707692,29.8468312 Z M10.5076923,27.3554535 C10.5076923,26.9137199 10.2884615,26.6310103 9.60446154,26.4543169 L9.60446154,28.2919288 C10.1744615,28.1947474 10.5076923,27.8413605 10.5076923,27.3554535 Z M8.09615385,24.5813662 C8.09615385,25.0672732 8.37676923,25.2881401 8.97307692,25.4559989 L8.97307692,23.777411 C8.42061538,23.8569231 8.09615385,24.1396326 8.09615385,24.5813662 Z"/></g><text id="Service" fill="#3D70B2" font-family="IBMPlexSans, IBM Plex Sans" font-size="14" font-weight="normal" line-spacing="15"><tspan x="12.295" y="11.334">Service</tspan></text></g><g id="Group-5" transform="translate(76.000000, 120.000000)"><path id="Combined-Shape" fill="#3D70B2" d="M1.5,35 L365.505494,35 L366.255494,35 L366.255494,36.5 L365.505494,36.5 L1.5,36.5 L0.75,36.5 L0.75,36.25 L0,36.25 L0,35.5 L0,1.5 L0,0.75 L1.5,0.75 L1.5,1.5 L1.5,35 Z"/><path id="Line-6" stroke="#3D70B2" stroke-linecap="square" stroke-width="1.5" d="M365.75,35.5 L365.75,12.5"/></g></g><polygon id="Rectangle-2" fill="#3D70B2" points="445.657 128.657 445.657 136.657 437.657 136.657" transform="translate(441.656854, 132.656854) rotate(-135.000000) translate(-441.656854, -132.656854)"/><polygon id="Rectangle-2" fill="#3D70B2" points="213.657 105.657 213.657 113.657 205.657 113.657" transform="translate(209.656854, 109.656854) rotate(-45.000000) translate(-209.656854, -109.656854)"/><g id="Rectangle-3-Copy-3"><use fill="#FFF" fill-rule="evenodd" xlink:href="#path-12"/><rect width="25.4" height="25.601" x="537.8" y="98.8" stroke="#3D70B2" stroke-width="1.6" rx="12.7"/></g><text id="bind" fill="#3D70B2" font-family="IBMPlexSans-Italic, IBM Plex Sans" font-size="9" font-style="italic" font-weight="normal" line-spacing="14"><tspan x="487.572" y="125">bind</tspan></text></g></g></svg>