<svg xmlns="http://www.w3.org/2000/svg" xmlns:xlink="http://www.w3.org/1999/xlink" width="1658" height="547" version="1.1" viewBox="0 0 1658 547"><title>2-bank_ex</title><desc>Created with Sketch.</desc><defs><path id="path-1" d="M0,0 L800,0 L800,523 L0,523 L0,0 Z"/><mask id="mask-2" width="800" height="523" x="0" y="0" fill="#fff" maskContentUnits="userSpaceOnUse" maskUnits="objectBoundingBox"><use xlink:href="#path-1"/></mask><path id="path-3" d="M0,0 L800,0 L800,523 L0,523 L0,0 Z"/><mask id="mask-4" width="800" height="523" x="0" y="0" fill="#fff" maskContentUnits="userSpaceOnUse" maskUnits="objectBoundingBox"><use xlink:href="#path-3"/></mask></defs><g id="2-bank_ex" fill="none" fill-rule="evenodd" stroke="none" stroke-width="1"><g id="bank_ex" transform="translate(9.000000, 10.000000)"><g id="retail-org"><use id="dotted-box" stroke="#DFE3E6" stroke-dasharray="10" stroke-width="6" mask="url(#mask-2)" xlink:href="#path-1"/><text id="Bank-A--Retail-Organ" fill="#5A6872" font-family="IBMPlexSans, IBM Plex Sans" font-size="24" font-weight="normal"><tspan x="35" y="53">Bank A- Retail Organization</tspan></text><g id="project-a" transform="translate(35.000000, 78.000000)"><rect id="Rectangle-2-Copy-2" width="351" height="415" x="1" y="1" stroke="#8C9BA5" stroke-width="2"/><g id="middle-content" transform="translate(53.000000, 26.000000)"><text id="Retail-Project-A" fill="#5A6872" font-family="IBMPlexSans-Bold, IBM Plex Sans" font-size="20" font-weight="bold"><tspan x="0" y="21">Retail Project A</tspan></text><text id="Prod_AppA_V1" fill="#5A6872" font-family="IBMPlexSans, IBM Plex Sans" font-size="20" font-weight="normal"><tspan x="100" y="94">Prod_AppA_V1</tspan></text><text id="Stage_AppA_V1" fill="#5A6872" font-family="IBMPlexSans, IBM Plex Sans" font-size="20" font-weight="normal"><tspan x="100" y="174">Stage_AppA_V1</tspan></text><text id="Test_AppA_V1" fill="#5A6872" font-family="IBMPlexSans, IBM Plex Sans" font-size="20" font-weight="normal"><tspan x="100" y="254">Test_AppA_V1</tspan></text><text id="Dev_AppA_V1" fill="#5A6872" font-family="IBMPlexSans, IBM Plex Sans" font-size="20" font-weight="normal"><tspan x="100" y="334">Dev_AppA_V1</tspan></text><g id="Hexy" transform="translate(0.000000, 46.000000)"><polygon id="polygon13" fill="#79C6FF" fill-rule="nonzero" points="37 0 0 20 0 60 37 80 74 60 74 20"/><polygon id="polygon15" fill="#56A8FD" fill-rule="nonzero" points="37 80 0 100 0 140 37 160 74 140 74 100"/><polygon id="polygon17" fill="#5294E9" fill-rule="nonzero" points="37 160 0 180 0 220 37 240 74 220 74 180"/><polygon id="polygon19" fill="#3A6EB4" fill-rule="nonzero" points="37 240 0 260 0 300 37 320 74 300 74 260"/><path id="Line-Copy-2" stroke="#0F212E" stroke-linecap="square" stroke-width="3" d="M37.5,45.5 L37.5,274.5"/><circle id="Oval-Copy-2" cx="37.5" cy="40.5" r="6.5" fill="#FFF" stroke="#0F212E" stroke-width="3"/><circle id="Oval-Copy-2" cx="37.5" cy="120.5" r="6.5" fill="#FFF" stroke="#0F212E" stroke-width="3"/><circle id="Oval-Copy-2" cx="37.5" cy="200.5" r="6.5" fill="#FFF" stroke="#0F212E" stroke-width="3"/><circle id="Oval-Copy-3" cx="37.5" cy="280.5" r="6.5" fill="#FFF" stroke="#0F212E" stroke-width="3"/></g></g></g><g id="project-b" transform="translate(412.000000, 78.000000)"><rect id="Rectangle-2-Copy-2" width="351" height="415" x="1" y="1" stroke="#8C9BA5" stroke-width="2"/><g id="middle-content" transform="translate(53.000000, 26.000000)"><text id="Retail-Project-B" fill="#5A6872" font-family="IBMPlexSans-Bold, IBM Plex Sans" font-size="20" font-weight="bold"><tspan x="0" y="21">Retail Project B</tspan></text><text id="Prod_AppB_V1" fill="#5A6872" font-family="IBMPlexSans, IBM Plex Sans" font-size="20" font-weight="normal"><tspan x="100" y="94">Prod_AppB_V1</tspan></text><text id="Stage_AppB_V1" fill="#5A6872" font-family="IBMPlexSans, IBM Plex Sans" font-size="20" font-weight="normal"><tspan x="100" y="174">Stage_AppB_V1</tspan></text><text id="Test_AppB_V1" fill="#5A6872" font-family="IBMPlexSans, IBM Plex Sans" font-size="20" font-weight="normal"><tspan x="100" y="254">Test_AppB_V1</tspan></text><text id="Dev_AppB_V1" fill="#5A6872" font-family="IBMPlexSans, IBM Plex Sans" font-size="20" font-weight="normal"><tspan x="100" y="334">Dev_AppB_V1</tspan></text><g id="Hexy" transform="translate(0.000000, 46.000000)"><polygon id="polygon13" fill="#DFE3E6" fill-rule="nonzero" points="37 0 0 20 0 60 37 80 74 60 74 20"/><polygon id="polygon15" fill="#8C9BA6" fill-rule="nonzero" points="37 80 0 100 0 140 37 160 74 140 74 100"/><polygon id="polygon17" fill="#5A6873" fill-rule="nonzero" points="37 160 0 180 0 220 37 240 74 220 74 180"/><polygon id="polygon19" fill="#2C3F4A" fill-rule="nonzero" points="37 240 0 260 0 300 37 320 74 300 74 260"/><path id="Line-Copy-2" stroke="#0F212E" stroke-linecap="square" stroke-width="3" d="M37.5,45.5 L37.5,274.5"/><circle id="Oval-Copy-2" cx="37.5" cy="40.5" r="6.5" fill="#FFF" stroke="#0F212E" stroke-width="3"/><circle id="Oval-Copy-2" cx="37.5" cy="120.5" r="6.5" fill="#FFF" stroke="#0F212E" stroke-width="3"/><circle id="Oval-Copy-2" cx="37.5" cy="200.5" r="6.5" fill="#FFF" stroke="#0F212E" stroke-width="3"/><circle id="Oval-Copy-3" cx="37.5" cy="280.5" r="6.5" fill="#FFF" stroke="#0F212E" stroke-width="3"/></g></g></g></g><g id="investment-org" transform="translate(824.000000, 0.000000)"><use id="dotted-box" stroke="#DFE3E6" stroke-dasharray="10" stroke-width="6" mask="url(#mask-4)" xlink:href="#path-3"/><text id="Bank-A--Investment-O" fill="#5A6872" font-family="IBMPlexSans, IBM Plex Sans" font-size="24" font-weight="normal"><tspan x="35" y="53">Bank A- Investment Organization</tspan></text><g id="project-a" transform="translate(35.000000, 78.000000)"><rect id="Rectangle-2-Copy-2" width="351" height="415" x="1" y="1" stroke="#8C9BA5" stroke-width="2"/><g id="middle-content" transform="translate(53.000000, 26.000000)"><text id="Investment-Project-X" fill="#5A6872" font-family="IBMPlexSans-Bold, IBM Plex Sans" font-size="20" font-weight="bold"><tspan x="0" y="21">Investment Project X</tspan></text><text id="Prod_AppX_V1" fill="#5A6872" font-family="IBMPlexSans, IBM Plex Sans" font-size="20" font-weight="normal"><tspan x="100" y="94">Prod_AppX_V1</tspan></text><text id="Stage_AppX_V1" fill="#5A6872" font-family="IBMPlexSans, IBM Plex Sans" font-size="20" font-weight="normal"><tspan x="100" y="174">Stage_AppX_V1</tspan></text><text id="Test_AppX_V1" fill="#5A6872" font-family="IBMPlexSans, IBM Plex Sans" font-size="20" font-weight="normal"><tspan x="100" y="254">Test_AppX_V1</tspan></text><text id="Dev_AppX_V1" fill="#5A6872" font-family="IBMPlexSans, IBM Plex Sans" font-size="20" font-weight="normal"><tspan x="100" y="334">Dev_AppX_V1</tspan></text><g id="Hexy" transform="translate(0.000000, 46.000000)"><polygon id="polygon13" fill="#79C6FF" fill-rule="nonzero" points="37 0 0 20 0 60 37 80 74 60 74 20"/><polygon id="polygon15" fill="#56A8FD" fill-rule="nonzero" points="37 80 0 100 0 140 37 160 74 140 74 100"/><polygon id="polygon17" fill="#5294E9" fill-rule="nonzero" points="37 160 0 180 0 220 37 240 74 220 74 180"/><polygon id="polygon19" fill="#3A6EB4" fill-rule="nonzero" points="37 240 0 260 0 300 37 320 74 300 74 260"/><path id="Line-Copy-2" stroke="#0F212E" stroke-linecap="square" stroke-width="3" d="M37.5,45.5 L37.5,274.5"/><circle id="Oval-Copy-2" cx="37.5" cy="40.5" r="6.5" fill="#FFF" stroke="#0F212E" stroke-width="3"/><circle id="Oval-Copy-2" cx="37.5" cy="120.5" r="6.5" fill="#FFF" stroke="#0F212E" stroke-width="3"/><circle id="Oval-Copy-2" cx="37.5" cy="200.5" r="6.5" fill="#FFF" stroke="#0F212E" stroke-width="3"/><circle id="Oval-Copy-3" cx="37.5" cy="280.5" r="6.5" fill="#FFF" stroke="#0F212E" stroke-width="3"/></g></g></g><g id="project-b" transform="translate(412.000000, 78.000000)"><rect id="Rectangle-2-Copy-2" width="351" height="415" x="1" y="1" stroke="#8C9BA5" stroke-width="2"/><g id="middle-content" transform="translate(53.000000, 26.000000)"><text id="Investment-Project-Y" fill="#5A6872" font-family="IBMPlexSans-Bold, IBM Plex Sans" font-size="20" font-weight="bold"><tspan x="0" y="21">Investment Project Y</tspan></text><text id="Prod_AppY_V1" fill="#5A6872" font-family="IBMPlexSans, IBM Plex Sans" font-size="20" font-weight="normal"><tspan x="100" y="94">Prod_AppY_V1</tspan></text><text id="Stage_AppY_V1" fill="#5A6872" font-family="IBMPlexSans, IBM Plex Sans" font-size="20" font-weight="normal"><tspan x="100" y="174">Stage_AppY_V1</tspan></text><text id="Test_AppY_V1" fill="#5A6872" font-family="IBMPlexSans, IBM Plex Sans" font-size="20" font-weight="normal"><tspan x="100" y="254">Test_AppY_V1</tspan></text><text id="Dev_AppY_V1" fill="#5A6872" font-family="IBMPlexSans, IBM Plex Sans" font-size="20" font-weight="normal"><tspan x="100" y="334">Dev_AppY_V1</tspan></text><g id="Hexy" transform="translate(0.000000, 46.000000)"><polygon id="polygon13" fill="#DFE3E6" fill-rule="nonzero" points="37 0 0 20 0 60 37 80 74 60 74 20"/><polygon id="polygon15" fill="#8C9BA6" fill-rule="nonzero" points="37 80 0 100 0 140 37 160 74 140 74 100"/><polygon id="polygon17" fill="#5A6873" fill-rule="nonzero" points="37 160 0 180 0 220 37 240 74 220 74 180"/><polygon id="polygon19" fill="#2C3F4A" fill-rule="nonzero" points="37 240 0 260 0 300 37 320 74 300 74 260"/><path id="Line-Copy-2" stroke="#0F212E" stroke-linecap="square" stroke-width="3" d="M37.5,45.5 L37.5,274.5"/><circle id="Oval-Copy-2" cx="37.5" cy="40.5" r="6.5" fill="#FFF" stroke="#0F212E" stroke-width="3"/><circle id="Oval-Copy-2" cx="37.5" cy="120.5" r="6.5" fill="#FFF" stroke="#0F212E" stroke-width="3"/><circle id="Oval-Copy-2" cx="37.5" cy="200.5" r="6.5" fill="#FFF" stroke="#0F212E" stroke-width="3"/><circle id="Oval-Copy-3" cx="37.5" cy="280.5" r="6.5" fill="#FFF" stroke="#0F212E" stroke-width="3"/></g></g></g></g></g></g></svg>