<svg xmlns="http://www.w3.org/2000/svg" xmlns:xlink="http://www.w3.org/1999/xlink" width="589" height="676" version="1.1" viewBox="0 0 589 676"><title>1-singleorg</title><desc>Created with Sketch.</desc><defs><path id="path-1" d="M0,0 L278,0 L278,214 L0,214 L0,0 Z"/><mask id="mask-2" width="278" height="214" x="0" y="0" fill="#fff" maskContentUnits="userSpaceOnUse" maskUnits="objectBoundingBox"><use xlink:href="#path-1"/></mask><path id="path-3" d="M0,0 L278,0 L278,214 L0,214 L0,0 Z"/><mask id="mask-4" width="278" height="214" x="0" y="0" fill="#fff" maskContentUnits="userSpaceOnUse" maskUnits="objectBoundingBox"><use xlink:href="#path-3"/></mask><path id="path-5" d="M0,0 L581,0 L581,429 L0,429 L0,0 Z"/><mask id="mask-6" width="581" height="429" x="0" y="0" fill="#fff" maskContentUnits="userSpaceOnUse" maskUnits="objectBoundingBox"><use xlink:href="#path-5"/></mask></defs><g id="1-singleorg" fill="none" fill-rule="evenodd" stroke="none" stroke-width="1"><g id="singleorg" transform="translate(4.000000, 5.000000)"><g id="local" transform="translate(1.000000, 0.000000)"><use id="dotted-box" stroke="#DFE3E6" stroke-dasharray="10" stroke-width="6" mask="url(#mask-2)" xlink:href="#path-1"/><text id="IBM-Bluemix-Local" fill="#5A6872" font-family="IBMPlexSans-Bold, IBM Plex Sans" font-size="20" font-weight="bold"><tspan x="63" y="49">IBM Bluemix Local</tspan></text><text id="Organization-Copy" fill="#5A6872" font-family="IBMPlexSans, IBM Plex Sans" font-size="20" font-weight="normal"><tspan x="82" y="180">Organization</tspan></text><g id="Hex" fill-rule="nonzero" transform="translate(102.000000, 67.000000)"><polygon id="polygon19" fill="#5596E6" points="37 0 37 80 0 60 0 20"/><polygon id="polygon21" fill="#3D70B2" points="37 0 37 80 74 60 74 20"/></g></g><g id="dedicated" transform="translate(303.000000, 0.000000)"><use id="dotted-box" stroke="#DFE3E6" stroke-dasharray="10" stroke-width="6" mask="url(#mask-4)" xlink:href="#path-3"/><text id="IBM-Cloud-Dedicated" fill="#5A6872" font-family="IBMPlexSans-Bold, IBM Plex Sans" font-size="20" font-weight="bold"><tspan x="40" y="49">IBM Cloud Dedicated</tspan></text><text id="Organization" fill="#5A6872" font-family="IBMPlexSans, IBM Plex Sans" font-size="20" font-weight="normal"><tspan x="82" y="180">Organization</tspan></text><g id="Hex" fill-rule="nonzero" transform="translate(102.000000, 67.000000)"><polygon id="polygon23" fill="#5AAAFA" points="37 0 37 80 0 60 0 20"/><polygon id="polygon25" fill="#5596E6" points="37 0 37 80 74 60 74 20"/></g></g><g id="public" transform="translate(0.000000, 238.000000)"><use id="dotted-box" stroke="#DFE3E6" stroke-dasharray="10" stroke-width="6" mask="url(#mask-6)" xlink:href="#path-5"/><text id="IBM-Cloud-Public" fill="#5A6872" font-family="IBMPlexSans-Bold, IBM Plex Sans" font-size="20" font-weight="bold"><tspan x="31" y="64">IBM Cloud Public</tspan></text><g id="region" transform="translate(31.000000, 94.000000)"><text id="Region" fill="#5A6872" font-family="IBMPlexSans, IBM Plex Sans" font-size="20" font-weight="normal"><tspan x="48" y="39">Region</tspan></text><rect id="Rectangle-2" width="156" height="61" x="1" y="1" stroke="#8C9BA5" stroke-width="2"/></g><g id="region" transform="translate(212.000000, 94.000000)"><text id="Region-Copy" fill="#5A6872" font-family="IBMPlexSans, IBM Plex Sans" font-size="20" font-weight="normal"><tspan x="48" y="39">Region</tspan></text><rect id="Rectangle-2-Copy" width="156" height="61" x="1" y="1" stroke="#8C9BA5" stroke-width="2"/></g><g id="region" transform="translate(392.000000, 94.000000)"><text id="Region-Copy-2" fill="#5A6872" font-family="IBMPlexSans, IBM Plex Sans" font-size="20" font-weight="normal"><tspan x="48" y="39">Region</tspan></text><rect id="Rectangle-2-Copy-2" width="156" height="61" x="1" y="1" stroke="#8C9BA5" stroke-width="2"/></g><g id="blue-lines" stroke="#4A90E2" stroke-width="3" transform="translate(103.000000, 149.000000)"><circle id="Oval" cx="7" cy="7" r="7" fill="#FFF"/><circle id="Oval-Copy" cx="188" cy="7" r="7" fill="#FFF"/><circle id="Oval-Copy-2" cx="368" cy="7" r="7" fill="#FFF"/><polyline id="Line" stroke-linecap="square" points="8 15 8 87 368.5 87"/><path id="Line-Copy" stroke-linecap="square" d="M188.5,14.5 L188.5,124"/><path id="Line-Copy-2" stroke-linecap="square" d="M368.5,15.5 L368.5,86.5"/></g><text id="Organization-Copy-2" fill="#5A6872" font-family="IBMPlexSans, IBM Plex Sans" font-size="20" font-weight="normal"><tspan x="234" y="380">Organization</tspan></text><g id="Hex" fill-rule="nonzero" transform="translate(254.000000, 267.000000)"><polygon id="polygon35" fill="#7CC7FF" points="37 0 37 80 0 60 0 20"/><polygon id="polygon37" fill="#5AAAFA" points="37 0 37 80 74 60 74 20"/></g></g></g></g></svg>